<svg width="44" height="46" viewBox="0 0 44 46" fill="none" xmlns="http://www.w3.org/2000/svg">
<g filter="url(#filter0_d_49_667)">
<path d="M40 34C40 36.209 38.209 38 36 38H8C5.791 38 4 36.209 4 34V6C4 3.791 5.791 2 8 2H36C38.209 2 40 3.791 40 6V34Z" fill="#77B255"/>
<path d="M33.28 8.36202C32.124 7.61102 30.576 7.94002 29.822 9.09802L18.936 25.877L13.907 21.227C12.893 20.289 11.311 20.352 10.374 21.365C9.43703 22.379 9.49903 23.961 10.513 24.898L17.722 31.564C18.202 32.009 18.812 32.229 19.418 32.229C20.091 32.229 20.952 31.947 21.517 31.09C21.849 30.584 34.017 11.82 34.017 11.82C34.768 10.661 34.438 9.11302 33.28 8.36202Z" fill="white"/>
</g>
<defs>
<filter id="filter0_d_49_667" x="-2" y="0" width="48" height="48" filterUnits="userSpaceOnUse" color-interpolation-filters="sRGB">
<feFlood flood-opacity="0" result="BackgroundImageFix"/>
<feColorMatrix in="SourceAlpha" type="matrix" values="0 0 0 0 0 0 0 0 0 0 0 0 0 0 0 0 0 0 127 0" result="hardAlpha"/>
<feOffset dy="4"/>
<feGaussianBlur stdDeviation="2"/>
<feComposite in2="hardAlpha" operator="out"/>
<feColorMatrix type="matrix" values="0 0 0 0 0 0 0 0 0 0 0 0 0 0 0 0 0 0 0.25 0"/>
<feBlend mode="normal" in2="BackgroundImageFix" result="effect1_dropShadow_49_667"/>
<feBlend mode="normal" in="SourceGraphic" in2="effect1_dropShadow_49_667" result="shape"/>
</filter>
</defs>
</svg>
